<mxfile host="Electron" modified="2024-08-22T17:39:42.822Z" agent="Mozilla/5.0 (Windows NT 10.0; Win64; x64) AppleWebKit/537.36 (KHTML, like Gecko) draw.io/23.1.5 Chrome/120.0.6099.109 Electron/28.1.0 Safari/537.36" etag="NaMsU72pRBJDi8vLC8V0" version="23.1.5" type="device">
  <diagram name="Страница — 1" id="Ggazx2XwHkl-k0AZSXdx">
    <mxGraphModel dx="2022" dy="703" grid="1" gridSize="10" guides="1" tooltips="1" connect="1" arrows="1" fold="1" page="1" pageScale="1" pageWidth="827" pageHeight="1169" math="0" shadow="0">
      <root>
        <mxCell id="0" />
        <mxCell id="1" parent="0" />
        <mxCell id="RBUQIPFhHEWP98NvYaXs-1" value="transactions" style="swimlane;whiteSpace=wrap;html=1;" parent="1" vertex="1">
          <mxGeometry x="-690" y="100" width="220" height="340" as="geometry" />
        </mxCell>
        <mxCell id="RBUQIPFhHEWP98NvYaXs-5" value="bigint&lt;div&gt;&lt;br/&gt;&lt;/div&gt;" style="text;html=1;align=center;verticalAlign=middle;whiteSpace=wrap;rounded=0;" parent="RBUQIPFhHEWP98NvYaXs-1" vertex="1">
          <mxGeometry x="150" y="30" width="60" height="30" as="geometry" />
        </mxCell>
        <mxCell id="RBUQIPFhHEWP98NvYaXs-7" value="id&lt;div&gt;&lt;br&gt;&lt;/div&gt;" style="text;html=1;align=center;verticalAlign=middle;whiteSpace=wrap;rounded=0;" parent="RBUQIPFhHEWP98NvYaXs-1" vertex="1">
          <mxGeometry x="10" y="30" width="60" height="30" as="geometry" />
        </mxCell>
        <mxCell id="RBUQIPFhHEWP98NvYaXs-8" value="bigint&lt;div&gt;&lt;br/&gt;&lt;/div&gt;" style="text;html=1;align=center;verticalAlign=middle;whiteSpace=wrap;rounded=0;" parent="RBUQIPFhHEWP98NvYaXs-1" vertex="1">
          <mxGeometry x="150" y="70" width="60" height="30" as="geometry" />
        </mxCell>
        <mxCell id="RBUQIPFhHEWP98NvYaXs-9" value="t_from&lt;br&gt;&lt;div&gt;&lt;br&gt;&lt;/div&gt;" style="text;html=1;align=center;verticalAlign=middle;whiteSpace=wrap;rounded=0;" parent="RBUQIPFhHEWP98NvYaXs-1" vertex="1">
          <mxGeometry x="10" y="70" width="60" height="30" as="geometry" />
        </mxCell>
        <mxCell id="RBUQIPFhHEWP98NvYaXs-10" value="" style="endArrow=none;html=1;rounded=0;" parent="RBUQIPFhHEWP98NvYaXs-1" edge="1">
          <mxGeometry width="50" height="50" relative="1" as="geometry">
            <mxPoint y="101" as="sourcePoint" />
            <mxPoint x="220" y="101" as="targetPoint" />
          </mxGeometry>
        </mxCell>
        <mxCell id="RBUQIPFhHEWP98NvYaXs-11" value="bigint&lt;div&gt;&lt;br/&gt;&lt;/div&gt;" style="text;html=1;align=center;verticalAlign=middle;whiteSpace=wrap;rounded=0;" parent="RBUQIPFhHEWP98NvYaXs-1" vertex="1">
          <mxGeometry x="150" y="110" width="60" height="30" as="geometry" />
        </mxCell>
        <mxCell id="RBUQIPFhHEWP98NvYaXs-12" value="t_to&lt;br&gt;&lt;div&gt;&lt;br&gt;&lt;/div&gt;" style="text;html=1;align=center;verticalAlign=middle;whiteSpace=wrap;rounded=0;" parent="RBUQIPFhHEWP98NvYaXs-1" vertex="1">
          <mxGeometry x="10" y="110" width="60" height="30" as="geometry" />
        </mxCell>
        <mxCell id="RBUQIPFhHEWP98NvYaXs-13" value="" style="endArrow=none;html=1;rounded=0;" parent="RBUQIPFhHEWP98NvYaXs-1" edge="1">
          <mxGeometry width="50" height="50" relative="1" as="geometry">
            <mxPoint y="141" as="sourcePoint" />
            <mxPoint x="220" y="141" as="targetPoint" />
          </mxGeometry>
        </mxCell>
        <mxCell id="RBUQIPFhHEWP98NvYaXs-14" value="bigint&lt;div&gt;&lt;br/&gt;&lt;/div&gt;" style="text;html=1;align=center;verticalAlign=middle;whiteSpace=wrap;rounded=0;" parent="RBUQIPFhHEWP98NvYaXs-1" vertex="1">
          <mxGeometry x="150" y="150" width="60" height="30" as="geometry" />
        </mxCell>
        <mxCell id="RBUQIPFhHEWP98NvYaXs-15" value="owner&lt;br&gt;&lt;div&gt;&lt;br&gt;&lt;/div&gt;" style="text;html=1;align=center;verticalAlign=middle;whiteSpace=wrap;rounded=0;" parent="RBUQIPFhHEWP98NvYaXs-1" vertex="1">
          <mxGeometry x="10" y="150" width="60" height="30" as="geometry" />
        </mxCell>
        <mxCell id="RBUQIPFhHEWP98NvYaXs-16" value="" style="endArrow=none;html=1;rounded=0;" parent="RBUQIPFhHEWP98NvYaXs-1" edge="1">
          <mxGeometry width="50" height="50" relative="1" as="geometry">
            <mxPoint y="181" as="sourcePoint" />
            <mxPoint x="220" y="181" as="targetPoint" />
          </mxGeometry>
        </mxCell>
        <mxCell id="RBUQIPFhHEWP98NvYaXs-17" value="int&lt;div&gt;&lt;br&gt;&lt;/div&gt;" style="text;html=1;align=center;verticalAlign=middle;whiteSpace=wrap;rounded=0;" parent="RBUQIPFhHEWP98NvYaXs-1" vertex="1">
          <mxGeometry x="150" y="190" width="60" height="30" as="geometry" />
        </mxCell>
        <mxCell id="RBUQIPFhHEWP98NvYaXs-18" value="sum&lt;br&gt;&lt;div&gt;&lt;br&gt;&lt;/div&gt;" style="text;html=1;align=center;verticalAlign=middle;whiteSpace=wrap;rounded=0;" parent="RBUQIPFhHEWP98NvYaXs-1" vertex="1">
          <mxGeometry x="10" y="190" width="60" height="30" as="geometry" />
        </mxCell>
        <mxCell id="RBUQIPFhHEWP98NvYaXs-19" value="" style="endArrow=none;html=1;rounded=0;" parent="RBUQIPFhHEWP98NvYaXs-1" edge="1">
          <mxGeometry width="50" height="50" relative="1" as="geometry">
            <mxPoint y="221" as="sourcePoint" />
            <mxPoint x="220" y="221" as="targetPoint" />
          </mxGeometry>
        </mxCell>
        <mxCell id="RBUQIPFhHEWP98NvYaXs-21" value="varchar&lt;br&gt;&lt;div&gt;&lt;br&gt;&lt;/div&gt;" style="text;html=1;align=center;verticalAlign=middle;whiteSpace=wrap;rounded=0;" parent="RBUQIPFhHEWP98NvYaXs-1" vertex="1">
          <mxGeometry x="150" y="230" width="60" height="30" as="geometry" />
        </mxCell>
        <mxCell id="RBUQIPFhHEWP98NvYaXs-22" value="type&lt;br&gt;&lt;div&gt;&lt;br&gt;&lt;/div&gt;" style="text;html=1;align=center;verticalAlign=middle;whiteSpace=wrap;rounded=0;" parent="RBUQIPFhHEWP98NvYaXs-1" vertex="1">
          <mxGeometry x="10" y="230" width="60" height="30" as="geometry" />
        </mxCell>
        <mxCell id="RBUQIPFhHEWP98NvYaXs-23" value="" style="endArrow=none;html=1;rounded=0;" parent="RBUQIPFhHEWP98NvYaXs-1" edge="1">
          <mxGeometry width="50" height="50" relative="1" as="geometry">
            <mxPoint y="261" as="sourcePoint" />
            <mxPoint x="220" y="261" as="targetPoint" />
          </mxGeometry>
        </mxCell>
        <mxCell id="RBUQIPFhHEWP98NvYaXs-25" value="comment&lt;br&gt;&lt;div&gt;&lt;br&gt;&lt;/div&gt;" style="text;html=1;align=center;verticalAlign=middle;whiteSpace=wrap;rounded=0;" parent="RBUQIPFhHEWP98NvYaXs-1" vertex="1">
          <mxGeometry x="10" y="270" width="60" height="30" as="geometry" />
        </mxCell>
        <mxCell id="RBUQIPFhHEWP98NvYaXs-26" value="" style="endArrow=none;html=1;rounded=0;" parent="RBUQIPFhHEWP98NvYaXs-1" edge="1">
          <mxGeometry width="50" height="50" relative="1" as="geometry">
            <mxPoint y="301" as="sourcePoint" />
            <mxPoint x="220" y="301" as="targetPoint" />
          </mxGeometry>
        </mxCell>
        <mxCell id="RBUQIPFhHEWP98NvYaXs-27" value="time&lt;div&gt;&lt;br&gt;&lt;/div&gt;" style="text;html=1;align=center;verticalAlign=middle;whiteSpace=wrap;rounded=0;" parent="RBUQIPFhHEWP98NvYaXs-1" vertex="1">
          <mxGeometry x="150" y="310" width="60" height="30" as="geometry" />
        </mxCell>
        <mxCell id="RBUQIPFhHEWP98NvYaXs-28" value="datatime&lt;br&gt;&lt;div&gt;&lt;br&gt;&lt;/div&gt;" style="text;html=1;align=center;verticalAlign=middle;whiteSpace=wrap;rounded=0;" parent="RBUQIPFhHEWP98NvYaXs-1" vertex="1">
          <mxGeometry x="10" y="310" width="60" height="30" as="geometry" />
        </mxCell>
        <mxCell id="RBUQIPFhHEWP98NvYaXs-30" value="varchar&lt;br&gt;&lt;div&gt;&lt;br&gt;&lt;/div&gt;" style="text;html=1;align=center;verticalAlign=middle;whiteSpace=wrap;rounded=0;" parent="RBUQIPFhHEWP98NvYaXs-1" vertex="1">
          <mxGeometry x="150" y="270" width="60" height="30" as="geometry" />
        </mxCell>
        <mxCell id="RBUQIPFhHEWP98NvYaXs-2" value="" style="endArrow=none;html=1;rounded=0;" parent="1" edge="1">
          <mxGeometry width="50" height="50" relative="1" as="geometry">
            <mxPoint x="-690" y="161" as="sourcePoint" />
            <mxPoint x="-470" y="161" as="targetPoint" />
          </mxGeometry>
        </mxCell>
        <mxCell id="RBUQIPFhHEWP98NvYaXs-31" value="persons" style="swimlane;whiteSpace=wrap;html=1;" parent="1" vertex="1">
          <mxGeometry x="-380" y="100" width="220" height="340" as="geometry" />
        </mxCell>
        <mxCell id="RBUQIPFhHEWP98NvYaXs-32" value="bigint&lt;div&gt;&lt;br/&gt;&lt;/div&gt;" style="text;html=1;align=center;verticalAlign=middle;whiteSpace=wrap;rounded=0;" parent="RBUQIPFhHEWP98NvYaXs-31" vertex="1">
          <mxGeometry x="150" y="30" width="60" height="30" as="geometry" />
        </mxCell>
        <mxCell id="RBUQIPFhHEWP98NvYaXs-33" value="id&lt;div&gt;&lt;br&gt;&lt;/div&gt;" style="text;html=1;align=center;verticalAlign=middle;whiteSpace=wrap;rounded=0;" parent="RBUQIPFhHEWP98NvYaXs-31" vertex="1">
          <mxGeometry x="10" y="30" width="60" height="30" as="geometry" />
        </mxCell>
        <mxCell id="RBUQIPFhHEWP98NvYaXs-35" value="login&lt;br&gt;&lt;div&gt;&lt;br&gt;&lt;/div&gt;" style="text;html=1;align=center;verticalAlign=middle;whiteSpace=wrap;rounded=0;" parent="RBUQIPFhHEWP98NvYaXs-31" vertex="1">
          <mxGeometry x="10" y="70" width="60" height="30" as="geometry" />
        </mxCell>
        <mxCell id="RBUQIPFhHEWP98NvYaXs-36" value="" style="endArrow=none;html=1;rounded=0;" parent="RBUQIPFhHEWP98NvYaXs-31" edge="1">
          <mxGeometry width="50" height="50" relative="1" as="geometry">
            <mxPoint y="101" as="sourcePoint" />
            <mxPoint x="220" y="101" as="targetPoint" />
          </mxGeometry>
        </mxCell>
        <mxCell id="RBUQIPFhHEWP98NvYaXs-38" value="password&lt;br&gt;&lt;div&gt;&lt;br&gt;&lt;/div&gt;" style="text;html=1;align=center;verticalAlign=middle;whiteSpace=wrap;rounded=0;" parent="RBUQIPFhHEWP98NvYaXs-31" vertex="1">
          <mxGeometry x="10" y="110" width="60" height="30" as="geometry" />
        </mxCell>
        <mxCell id="RBUQIPFhHEWP98NvYaXs-39" value="" style="endArrow=none;html=1;rounded=0;" parent="RBUQIPFhHEWP98NvYaXs-31" edge="1">
          <mxGeometry width="50" height="50" relative="1" as="geometry">
            <mxPoint y="141" as="sourcePoint" />
            <mxPoint x="220" y="141" as="targetPoint" />
          </mxGeometry>
        </mxCell>
        <mxCell id="RBUQIPFhHEWP98NvYaXs-41" value="role&lt;br&gt;&lt;div&gt;&lt;br&gt;&lt;/div&gt;" style="text;html=1;align=center;verticalAlign=middle;whiteSpace=wrap;rounded=0;" parent="RBUQIPFhHEWP98NvYaXs-31" vertex="1">
          <mxGeometry x="10" y="150" width="60" height="30" as="geometry" />
        </mxCell>
        <mxCell id="RBUQIPFhHEWP98NvYaXs-42" value="" style="endArrow=none;html=1;rounded=0;" parent="RBUQIPFhHEWP98NvYaXs-31" edge="1">
          <mxGeometry width="50" height="50" relative="1" as="geometry">
            <mxPoint y="181" as="sourcePoint" />
            <mxPoint x="220" y="181" as="targetPoint" />
          </mxGeometry>
        </mxCell>
        <mxCell id="RBUQIPFhHEWP98NvYaXs-43" value="int&lt;div&gt;&lt;br&gt;&lt;/div&gt;" style="text;html=1;align=center;verticalAlign=middle;whiteSpace=wrap;rounded=0;" parent="RBUQIPFhHEWP98NvYaXs-31" vertex="1">
          <mxGeometry x="150" y="190" width="60" height="30" as="geometry" />
        </mxCell>
        <mxCell id="RBUQIPFhHEWP98NvYaXs-44" value="sum&lt;br&gt;&lt;div&gt;&lt;br&gt;&lt;/div&gt;" style="text;html=1;align=center;verticalAlign=middle;whiteSpace=wrap;rounded=0;" parent="RBUQIPFhHEWP98NvYaXs-31" vertex="1">
          <mxGeometry x="10" y="190" width="60" height="30" as="geometry" />
        </mxCell>
        <mxCell id="RBUQIPFhHEWP98NvYaXs-45" value="" style="endArrow=none;html=1;rounded=0;" parent="RBUQIPFhHEWP98NvYaXs-31" edge="1">
          <mxGeometry width="50" height="50" relative="1" as="geometry">
            <mxPoint y="221" as="sourcePoint" />
            <mxPoint x="220" y="221" as="targetPoint" />
          </mxGeometry>
        </mxCell>
        <mxCell id="RBUQIPFhHEWP98NvYaXs-46" value="varchar&lt;br&gt;&lt;div&gt;&lt;br&gt;&lt;/div&gt;" style="text;html=1;align=center;verticalAlign=middle;whiteSpace=wrap;rounded=0;" parent="RBUQIPFhHEWP98NvYaXs-31" vertex="1">
          <mxGeometry x="150" y="70" width="60" height="30" as="geometry" />
        </mxCell>
        <mxCell id="RBUQIPFhHEWP98NvYaXs-47" value="first_name&lt;br&gt;&lt;div&gt;&lt;br&gt;&lt;/div&gt;" style="text;html=1;align=center;verticalAlign=middle;whiteSpace=wrap;rounded=0;" parent="RBUQIPFhHEWP98NvYaXs-31" vertex="1">
          <mxGeometry x="10" y="230" width="60" height="30" as="geometry" />
        </mxCell>
        <mxCell id="RBUQIPFhHEWP98NvYaXs-48" value="" style="endArrow=none;html=1;rounded=0;" parent="RBUQIPFhHEWP98NvYaXs-31" edge="1">
          <mxGeometry width="50" height="50" relative="1" as="geometry">
            <mxPoint y="261" as="sourcePoint" />
            <mxPoint x="220" y="261" as="targetPoint" />
          </mxGeometry>
        </mxCell>
        <mxCell id="RBUQIPFhHEWP98NvYaXs-49" value="last_name&lt;br&gt;&lt;div&gt;&lt;br&gt;&lt;/div&gt;" style="text;html=1;align=center;verticalAlign=middle;whiteSpace=wrap;rounded=0;" parent="RBUQIPFhHEWP98NvYaXs-31" vertex="1">
          <mxGeometry x="10" y="270" width="60" height="30" as="geometry" />
        </mxCell>
        <mxCell id="RBUQIPFhHEWP98NvYaXs-50" value="" style="endArrow=none;html=1;rounded=0;" parent="RBUQIPFhHEWP98NvYaXs-31" edge="1">
          <mxGeometry width="50" height="50" relative="1" as="geometry">
            <mxPoint y="301" as="sourcePoint" />
            <mxPoint x="220" y="301" as="targetPoint" />
          </mxGeometry>
        </mxCell>
        <mxCell id="RBUQIPFhHEWP98NvYaXs-52" value="average_name&lt;br&gt;&lt;div&gt;&lt;br&gt;&lt;/div&gt;" style="text;html=1;align=center;verticalAlign=middle;whiteSpace=wrap;rounded=0;" parent="RBUQIPFhHEWP98NvYaXs-31" vertex="1">
          <mxGeometry x="15" y="310" width="60" height="30" as="geometry" />
        </mxCell>
        <mxCell id="RBUQIPFhHEWP98NvYaXs-53" value="varchar&lt;br&gt;&lt;div&gt;&lt;br&gt;&lt;/div&gt;" style="text;html=1;align=center;verticalAlign=middle;whiteSpace=wrap;rounded=0;" parent="RBUQIPFhHEWP98NvYaXs-31" vertex="1">
          <mxGeometry x="150" y="270" width="60" height="30" as="geometry" />
        </mxCell>
        <mxCell id="RBUQIPFhHEWP98NvYaXs-55" value="varchar&lt;br&gt;&lt;div&gt;&lt;br&gt;&lt;/div&gt;" style="text;html=1;align=center;verticalAlign=middle;whiteSpace=wrap;rounded=0;" parent="RBUQIPFhHEWP98NvYaXs-31" vertex="1">
          <mxGeometry x="150" y="110" width="60" height="30" as="geometry" />
        </mxCell>
        <mxCell id="RBUQIPFhHEWP98NvYaXs-56" value="varchar&lt;br&gt;&lt;div&gt;&lt;br&gt;&lt;/div&gt;" style="text;html=1;align=center;verticalAlign=middle;whiteSpace=wrap;rounded=0;" parent="RBUQIPFhHEWP98NvYaXs-31" vertex="1">
          <mxGeometry x="150" y="150" width="60" height="30" as="geometry" />
        </mxCell>
        <mxCell id="RBUQIPFhHEWP98NvYaXs-57" value="varchar&lt;br&gt;&lt;div&gt;&lt;br&gt;&lt;/div&gt;" style="text;html=1;align=center;verticalAlign=middle;whiteSpace=wrap;rounded=0;" parent="RBUQIPFhHEWP98NvYaXs-31" vertex="1">
          <mxGeometry x="150" y="230" width="60" height="30" as="geometry" />
        </mxCell>
        <mxCell id="RBUQIPFhHEWP98NvYaXs-58" value="varchar&lt;br&gt;&lt;div&gt;&lt;br&gt;&lt;/div&gt;" style="text;html=1;align=center;verticalAlign=middle;whiteSpace=wrap;rounded=0;" parent="RBUQIPFhHEWP98NvYaXs-31" vertex="1">
          <mxGeometry x="150" y="310" width="60" height="30" as="geometry" />
        </mxCell>
        <mxCell id="RBUQIPFhHEWP98NvYaXs-54" value="" style="endArrow=none;html=1;rounded=0;" parent="1" edge="1">
          <mxGeometry width="50" height="50" relative="1" as="geometry">
            <mxPoint x="-380" y="161" as="sourcePoint" />
            <mxPoint x="-160" y="161" as="targetPoint" />
          </mxGeometry>
        </mxCell>
        <mxCell id="RBUQIPFhHEWP98NvYaXs-59" value="cfoes" style="swimlane;whiteSpace=wrap;html=1;" parent="1" vertex="1">
          <mxGeometry x="-50" y="100" width="220" height="220" as="geometry" />
        </mxCell>
        <mxCell id="RBUQIPFhHEWP98NvYaXs-60" value="bigint&lt;div&gt;&lt;br/&gt;&lt;/div&gt;" style="text;html=1;align=center;verticalAlign=middle;whiteSpace=wrap;rounded=0;" parent="RBUQIPFhHEWP98NvYaXs-59" vertex="1">
          <mxGeometry x="150" y="30" width="60" height="30" as="geometry" />
        </mxCell>
        <mxCell id="RBUQIPFhHEWP98NvYaXs-61" value="id&lt;div&gt;&lt;br&gt;&lt;/div&gt;" style="text;html=1;align=center;verticalAlign=middle;whiteSpace=wrap;rounded=0;" parent="RBUQIPFhHEWP98NvYaXs-59" vertex="1">
          <mxGeometry x="10" y="30" width="60" height="30" as="geometry" />
        </mxCell>
        <mxCell id="RBUQIPFhHEWP98NvYaXs-62" value="cfo_name&lt;br&gt;&lt;div&gt;&lt;br&gt;&lt;/div&gt;" style="text;html=1;align=center;verticalAlign=middle;whiteSpace=wrap;rounded=0;" parent="RBUQIPFhHEWP98NvYaXs-59" vertex="1">
          <mxGeometry x="10" y="70" width="60" height="30" as="geometry" />
        </mxCell>
        <mxCell id="RBUQIPFhHEWP98NvYaXs-63" value="" style="endArrow=none;html=1;rounded=0;" parent="RBUQIPFhHEWP98NvYaXs-59" edge="1">
          <mxGeometry width="50" height="50" relative="1" as="geometry">
            <mxPoint y="101" as="sourcePoint" />
            <mxPoint x="220" y="101" as="targetPoint" />
          </mxGeometry>
        </mxCell>
        <mxCell id="RBUQIPFhHEWP98NvYaXs-65" value="" style="endArrow=none;html=1;rounded=0;" parent="RBUQIPFhHEWP98NvYaXs-59" edge="1">
          <mxGeometry width="50" height="50" relative="1" as="geometry">
            <mxPoint y="141" as="sourcePoint" />
            <mxPoint x="220" y="141" as="targetPoint" />
          </mxGeometry>
        </mxCell>
        <mxCell id="RBUQIPFhHEWP98NvYaXs-66" value="owner_id&lt;br&gt;&lt;div&gt;&lt;br&gt;&lt;/div&gt;" style="text;html=1;align=center;verticalAlign=middle;whiteSpace=wrap;rounded=0;" parent="RBUQIPFhHEWP98NvYaXs-59" vertex="1">
          <mxGeometry x="10" y="150" width="60" height="30" as="geometry" />
        </mxCell>
        <mxCell id="RBUQIPFhHEWP98NvYaXs-67" value="" style="endArrow=none;html=1;rounded=0;" parent="RBUQIPFhHEWP98NvYaXs-59" edge="1">
          <mxGeometry width="50" height="50" relative="1" as="geometry">
            <mxPoint y="181" as="sourcePoint" />
            <mxPoint x="220" y="181" as="targetPoint" />
          </mxGeometry>
        </mxCell>
        <mxCell id="RBUQIPFhHEWP98NvYaXs-68" value="int&lt;div&gt;&lt;br&gt;&lt;/div&gt;" style="text;html=1;align=center;verticalAlign=middle;whiteSpace=wrap;rounded=0;" parent="RBUQIPFhHEWP98NvYaXs-59" vertex="1">
          <mxGeometry x="150" y="110" width="60" height="30" as="geometry" />
        </mxCell>
        <mxCell id="RBUQIPFhHEWP98NvYaXs-69" value="sum&lt;br&gt;&lt;div&gt;&lt;br&gt;&lt;/div&gt;" style="text;html=1;align=center;verticalAlign=middle;whiteSpace=wrap;rounded=0;" parent="RBUQIPFhHEWP98NvYaXs-59" vertex="1">
          <mxGeometry x="10" y="110" width="60" height="30" as="geometry" />
        </mxCell>
        <mxCell id="RBUQIPFhHEWP98NvYaXs-71" value="varchar&lt;br&gt;&lt;div&gt;&lt;br&gt;&lt;/div&gt;" style="text;html=1;align=center;verticalAlign=middle;whiteSpace=wrap;rounded=0;" parent="RBUQIPFhHEWP98NvYaXs-59" vertex="1">
          <mxGeometry x="150" y="70" width="60" height="30" as="geometry" />
        </mxCell>
        <mxCell id="RBUQIPFhHEWP98NvYaXs-83" value="int&lt;div&gt;&lt;br&gt;&lt;/div&gt;" style="text;html=1;align=center;verticalAlign=middle;whiteSpace=wrap;rounded=0;" parent="RBUQIPFhHEWP98NvYaXs-59" vertex="1">
          <mxGeometry x="150" y="190" width="60" height="30" as="geometry" />
        </mxCell>
        <mxCell id="RBUQIPFhHEWP98NvYaXs-84" value="basic_sum&lt;br&gt;&lt;div&gt;&lt;br&gt;&lt;/div&gt;" style="text;html=1;align=center;verticalAlign=middle;whiteSpace=wrap;rounded=0;" parent="RBUQIPFhHEWP98NvYaXs-59" vertex="1">
          <mxGeometry x="10" y="190" width="60" height="30" as="geometry" />
        </mxCell>
        <mxCell id="RBUQIPFhHEWP98NvYaXs-85" value="bigint&lt;div&gt;&lt;br/&gt;&lt;/div&gt;" style="text;html=1;align=center;verticalAlign=middle;whiteSpace=wrap;rounded=0;" parent="RBUQIPFhHEWP98NvYaXs-59" vertex="1">
          <mxGeometry x="150" y="150" width="60" height="30" as="geometry" />
        </mxCell>
        <mxCell id="RBUQIPFhHEWP98NvYaXs-82" value="" style="endArrow=none;html=1;rounded=0;" parent="1" edge="1">
          <mxGeometry width="50" height="50" relative="1" as="geometry">
            <mxPoint x="-50" y="161" as="sourcePoint" />
            <mxPoint x="170" y="161" as="targetPoint" />
          </mxGeometry>
        </mxCell>
        <mxCell id="RBUQIPFhHEWP98NvYaXs-86" value="" style="endArrow=classic;html=1;rounded=0;" parent="1" edge="1">
          <mxGeometry width="50" height="50" relative="1" as="geometry">
            <mxPoint x="-50" y="260" as="sourcePoint" />
            <mxPoint x="-160" y="140" as="targetPoint" />
            <Array as="points">
              <mxPoint x="-110" y="260" />
              <mxPoint x="-110" y="140" />
            </Array>
          </mxGeometry>
        </mxCell>
        <mxCell id="RBUQIPFhHEWP98NvYaXs-89" value="" style="endArrow=classic;html=1;rounded=0;" parent="1" edge="1">
          <mxGeometry width="50" height="50" relative="1" as="geometry">
            <mxPoint x="-470" y="260" as="sourcePoint" />
            <mxPoint x="-380" y="140" as="targetPoint" />
            <Array as="points">
              <mxPoint x="-430" y="260" />
              <mxPoint x="-430" y="140" />
            </Array>
          </mxGeometry>
        </mxCell>
        <mxCell id="RBUQIPFhHEWP98NvYaXs-90" value="" style="endArrow=none;html=1;rounded=0;" parent="1" edge="1">
          <mxGeometry width="50" height="50" relative="1" as="geometry">
            <mxPoint x="-470" y="180" as="sourcePoint" />
            <mxPoint x="-430" y="180" as="targetPoint" />
          </mxGeometry>
        </mxCell>
        <mxCell id="RBUQIPFhHEWP98NvYaXs-91" value="" style="endArrow=none;html=1;rounded=0;" parent="1" edge="1">
          <mxGeometry width="50" height="50" relative="1" as="geometry">
            <mxPoint x="-470" y="220" as="sourcePoint" />
            <mxPoint x="-430" y="220" as="targetPoint" />
          </mxGeometry>
        </mxCell>
        <mxCell id="RBUQIPFhHEWP98NvYaXs-92" value="" style="endArrow=classic;html=1;rounded=0;" parent="1" edge="1">
          <mxGeometry width="50" height="50" relative="1" as="geometry">
            <mxPoint x="-690" y="220" as="sourcePoint" />
            <mxPoint x="-50" y="140" as="targetPoint" />
            <Array as="points">
              <mxPoint x="-750" y="220" />
              <mxPoint x="-750" y="80" />
              <mxPoint x="-90" y="80" />
              <mxPoint x="-90" y="140" />
            </Array>
          </mxGeometry>
        </mxCell>
        <mxCell id="RBUQIPFhHEWP98NvYaXs-93" value="" style="endArrow=none;html=1;rounded=0;" parent="1" edge="1">
          <mxGeometry width="50" height="50" relative="1" as="geometry">
            <mxPoint x="-750" y="180" as="sourcePoint" />
            <mxPoint x="-690" y="180" as="targetPoint" />
          </mxGeometry>
        </mxCell>
        <mxCell id="RBUQIPFhHEWP98NvYaXs-95" value="" style="edgeStyle=entityRelationEdgeStyle;fontSize=12;html=1;endArrow=ERmany;rounded=0;" parent="1" edge="1">
          <mxGeometry width="100" height="100" relative="1" as="geometry">
            <mxPoint x="-80" y="260" as="sourcePoint" />
            <mxPoint x="-50" y="260" as="targetPoint" />
            <Array as="points">
              <mxPoint x="-130" y="350" />
            </Array>
          </mxGeometry>
        </mxCell>
        <mxCell id="RBUQIPFhHEWP98NvYaXs-96" value="" style="edgeStyle=entityRelationEdgeStyle;fontSize=12;html=1;endArrow=ERmany;rounded=0;" parent="1" edge="1">
          <mxGeometry width="100" height="100" relative="1" as="geometry">
            <mxPoint x="-720" y="180" as="sourcePoint" />
            <mxPoint x="-690" y="180" as="targetPoint" />
            <Array as="points">
              <mxPoint x="-770" y="270" />
            </Array>
          </mxGeometry>
        </mxCell>
        <mxCell id="RBUQIPFhHEWP98NvYaXs-97" value="" style="edgeStyle=entityRelationEdgeStyle;fontSize=12;html=1;endArrow=ERmany;rounded=0;" parent="1" edge="1">
          <mxGeometry width="100" height="100" relative="1" as="geometry">
            <mxPoint x="-720" y="220" as="sourcePoint" />
            <mxPoint x="-690" y="220" as="targetPoint" />
            <Array as="points">
              <mxPoint x="-770" y="310" />
            </Array>
          </mxGeometry>
        </mxCell>
        <mxCell id="RBUQIPFhHEWP98NvYaXs-103" value="" style="edgeStyle=entityRelationEdgeStyle;fontSize=12;html=1;endArrow=none;rounded=0;startArrow=ERmany;startFill=0;endFill=0;" parent="1" edge="1">
          <mxGeometry width="100" height="100" relative="1" as="geometry">
            <mxPoint x="-470" y="260" as="sourcePoint" />
            <mxPoint x="-440" y="260" as="targetPoint" />
            <Array as="points">
              <mxPoint x="-400" y="210" />
              <mxPoint x="-350" y="170" />
              <mxPoint x="-540" y="210" />
            </Array>
          </mxGeometry>
        </mxCell>
        <mxCell id="RBUQIPFhHEWP98NvYaXs-104" value="" style="edgeStyle=entityRelationEdgeStyle;fontSize=12;html=1;endArrow=none;rounded=0;startArrow=ERmany;startFill=0;endFill=0;" parent="1" edge="1">
          <mxGeometry width="100" height="100" relative="1" as="geometry">
            <mxPoint x="-470" y="220" as="sourcePoint" />
            <mxPoint x="-440" y="220" as="targetPoint" />
            <Array as="points">
              <mxPoint x="-400" y="170" />
              <mxPoint x="-350" y="130" />
              <mxPoint x="-540" y="170" />
            </Array>
          </mxGeometry>
        </mxCell>
        <mxCell id="RBUQIPFhHEWP98NvYaXs-105" value="" style="edgeStyle=entityRelationEdgeStyle;fontSize=12;html=1;endArrow=none;rounded=0;startArrow=ERmany;startFill=0;endFill=0;" parent="1" edge="1">
          <mxGeometry width="100" height="100" relative="1" as="geometry">
            <mxPoint x="-470" y="180" as="sourcePoint" />
            <mxPoint x="-440" y="180" as="targetPoint" />
            <Array as="points">
              <mxPoint x="-400" y="130" />
              <mxPoint x="-350" y="90" />
              <mxPoint x="-540" y="130" />
            </Array>
          </mxGeometry>
        </mxCell>
        <mxCell id="hZusMHk0fK0p_INnxP2e-1" value="all_id" style="swimlane;whiteSpace=wrap;html=1;" vertex="1" parent="1">
          <mxGeometry x="-50" y="360" width="220" height="140" as="geometry" />
        </mxCell>
        <mxCell id="hZusMHk0fK0p_INnxP2e-2" value="bigint&lt;div&gt;&lt;br/&gt;&lt;/div&gt;" style="text;html=1;align=center;verticalAlign=middle;whiteSpace=wrap;rounded=0;" vertex="1" parent="hZusMHk0fK0p_INnxP2e-1">
          <mxGeometry x="150" y="30" width="60" height="30" as="geometry" />
        </mxCell>
        <mxCell id="hZusMHk0fK0p_INnxP2e-3" value="id&lt;div&gt;&lt;br&gt;&lt;/div&gt;" style="text;html=1;align=center;verticalAlign=middle;whiteSpace=wrap;rounded=0;" vertex="1" parent="hZusMHk0fK0p_INnxP2e-1">
          <mxGeometry x="10" y="30" width="60" height="30" as="geometry" />
        </mxCell>
        <mxCell id="hZusMHk0fK0p_INnxP2e-4" value="type_id&lt;br&gt;&lt;div&gt;&lt;br&gt;&lt;/div&gt;" style="text;html=1;align=center;verticalAlign=middle;whiteSpace=wrap;rounded=0;" vertex="1" parent="hZusMHk0fK0p_INnxP2e-1">
          <mxGeometry x="10" y="70" width="60" height="30" as="geometry" />
        </mxCell>
        <mxCell id="hZusMHk0fK0p_INnxP2e-5" value="" style="endArrow=none;html=1;rounded=0;" edge="1" parent="hZusMHk0fK0p_INnxP2e-1">
          <mxGeometry width="50" height="50" relative="1" as="geometry">
            <mxPoint y="101" as="sourcePoint" />
            <mxPoint x="220" y="101" as="targetPoint" />
          </mxGeometry>
        </mxCell>
        <mxCell id="hZusMHk0fK0p_INnxP2e-10" value="table_id&lt;br&gt;&lt;div&gt;&lt;br&gt;&lt;/div&gt;" style="text;html=1;align=center;verticalAlign=middle;whiteSpace=wrap;rounded=0;" vertex="1" parent="hZusMHk0fK0p_INnxP2e-1">
          <mxGeometry x="10" y="110" width="60" height="30" as="geometry" />
        </mxCell>
        <mxCell id="hZusMHk0fK0p_INnxP2e-11" value="varchar&lt;br&gt;&lt;div&gt;&lt;br&gt;&lt;/div&gt;" style="text;html=1;align=center;verticalAlign=middle;whiteSpace=wrap;rounded=0;" vertex="1" parent="hZusMHk0fK0p_INnxP2e-1">
          <mxGeometry x="150" y="70" width="60" height="30" as="geometry" />
        </mxCell>
        <mxCell id="hZusMHk0fK0p_INnxP2e-14" value="bigint&lt;div&gt;&lt;br/&gt;&lt;/div&gt;" style="text;html=1;align=center;verticalAlign=middle;whiteSpace=wrap;rounded=0;" vertex="1" parent="hZusMHk0fK0p_INnxP2e-1">
          <mxGeometry x="150" y="110" width="60" height="30" as="geometry" />
        </mxCell>
        <mxCell id="hZusMHk0fK0p_INnxP2e-15" value="" style="endArrow=none;html=1;rounded=0;" edge="1" parent="1">
          <mxGeometry width="50" height="50" relative="1" as="geometry">
            <mxPoint x="-50" y="421" as="sourcePoint" />
            <mxPoint x="170" y="421" as="targetPoint" />
          </mxGeometry>
        </mxCell>
        <mxCell id="hZusMHk0fK0p_INnxP2e-18" value="" style="edgeStyle=entityRelationEdgeStyle;fontSize=12;html=1;endArrow=ERmany;rounded=0;" edge="1" parent="1">
          <mxGeometry width="100" height="100" relative="1" as="geometry">
            <mxPoint x="-80" y="480" as="sourcePoint" />
            <mxPoint x="-50" y="480" as="targetPoint" />
            <Array as="points">
              <mxPoint x="-130" y="570" />
              <mxPoint x="-100" y="480" />
            </Array>
          </mxGeometry>
        </mxCell>
        <mxCell id="hZusMHk0fK0p_INnxP2e-20" value="" style="endArrow=none;html=1;rounded=0;" edge="1" parent="1">
          <mxGeometry width="50" height="50" relative="1" as="geometry">
            <mxPoint x="-80" y="480" as="sourcePoint" />
            <mxPoint x="-110" y="260" as="targetPoint" />
            <Array as="points">
              <mxPoint x="-110" y="480" />
            </Array>
          </mxGeometry>
        </mxCell>
        <mxCell id="hZusMHk0fK0p_INnxP2e-21" value="" style="edgeStyle=entityRelationEdgeStyle;fontSize=12;html=1;endArrow=none;rounded=0;startArrow=ERmany;startFill=0;endFill=0;" edge="1" parent="1">
          <mxGeometry width="100" height="100" relative="1" as="geometry">
            <mxPoint x="170" y="480" as="sourcePoint" />
            <mxPoint x="200" y="480" as="targetPoint" />
            <Array as="points">
              <mxPoint x="240" y="430" />
              <mxPoint x="290" y="390" />
              <mxPoint x="100" y="430" />
            </Array>
          </mxGeometry>
        </mxCell>
        <mxCell id="hZusMHk0fK0p_INnxP2e-23" value="" style="endArrow=classic;html=1;rounded=0;" edge="1" parent="1">
          <mxGeometry width="50" height="50" relative="1" as="geometry">
            <mxPoint x="200" y="480" as="sourcePoint" />
            <mxPoint x="170" y="140" as="targetPoint" />
            <Array as="points">
              <mxPoint x="200" y="140" />
            </Array>
          </mxGeometry>
        </mxCell>
      </root>
    </mxGraphModel>
  </diagram>
</mxfile>
